<mxfile host="Electron" agent="Mozilla/5.0 (Windows NT 10.0; Win64; x64) AppleWebKit/537.36 (KHTML, like Gecko) draw.io/26.0.16 Chrome/132.0.6834.196 Electron/34.2.0 Safari/537.36" version="26.0.16">
  <diagram name="PÃ¡gina-1" id="cCX5ZzwF9p0pDV1tlpZC">
    <mxGraphModel dx="1834" dy="1001" grid="1" gridSize="10" guides="1" tooltips="1" connect="1" arrows="1" fold="1" page="1" pageScale="1" pageWidth="827" pageHeight="1169" math="0" shadow="0">
      <root>
        <mxCell id="0" />
        <mxCell id="1" parent="0" />
        <mxCell id="zJrKeQWeIjgLpOODteeF-1" value="&lt;span style=&quot;font-size: 18px;&quot;&gt;Taxon Core&lt;/span&gt;" style="ellipse;whiteSpace=wrap;html=1;" vertex="1" parent="1">
          <mxGeometry x="404" y="255" width="120" height="80" as="geometry" />
        </mxCell>
        <mxCell id="zJrKeQWeIjgLpOODteeF-2" value="&lt;font style=&quot;font-size: 18px;&quot;&gt;Species&lt;br&gt;Distribution&lt;/font&gt;" style="ellipse;whiteSpace=wrap;html=1;" vertex="1" parent="1">
          <mxGeometry x="450" y="105" width="120" height="80" as="geometry" />
        </mxCell>
        <mxCell id="zJrKeQWeIjgLpOODteeF-3" value="&lt;span style=&quot;font-size: 18px;&quot;&gt;Taxon&lt;br&gt;Description&lt;/span&gt;" style="ellipse;whiteSpace=wrap;html=1;" vertex="1" parent="1">
          <mxGeometry x="600" y="225" width="120" height="80" as="geometry" />
        </mxCell>
        <mxCell id="zJrKeQWeIjgLpOODteeF-4" value="&lt;span style=&quot;font-size: 18px;&quot;&gt;Literature&lt;br&gt;Referece&lt;/span&gt;" style="ellipse;whiteSpace=wrap;html=1;" vertex="1" parent="1">
          <mxGeometry x="510" y="375" width="120" height="80" as="geometry" />
        </mxCell>
        <mxCell id="zJrKeQWeIjgLpOODteeF-5" value="&lt;span style=&quot;font-size: 18px;&quot;&gt;Ethnobotany&lt;/span&gt;" style="ellipse;whiteSpace=wrap;html=1;" vertex="1" parent="1">
          <mxGeometry x="270" y="355" width="120" height="80" as="geometry" />
        </mxCell>
        <mxCell id="zJrKeQWeIjgLpOODteeF-6" value="&lt;span style=&quot;font-size: 18px;&quot;&gt;Vernacular&lt;br&gt;Names&lt;/span&gt;" style="ellipse;whiteSpace=wrap;html=1;" vertex="1" parent="1">
          <mxGeometry x="240" y="165" width="120" height="80" as="geometry" />
        </mxCell>
        <mxCell id="zJrKeQWeIjgLpOODteeF-7" value="" style="endArrow=none;html=1;rounded=0;exitX=0.939;exitY=0.772;exitDx=0;exitDy=0;exitPerimeter=0;entryX=0.092;entryY=0.2;entryDx=0;entryDy=0;entryPerimeter=0;" edge="1" parent="1" source="zJrKeQWeIjgLpOODteeF-6" target="zJrKeQWeIjgLpOODteeF-1">
          <mxGeometry width="50" height="50" relative="1" as="geometry">
            <mxPoint x="500" y="445" as="sourcePoint" />
            <mxPoint x="410" y="285" as="targetPoint" />
          </mxGeometry>
        </mxCell>
        <mxCell id="zJrKeQWeIjgLpOODteeF-8" value="" style="endArrow=none;html=1;rounded=0;exitX=0;exitY=1;exitDx=0;exitDy=0;" edge="1" parent="1" source="zJrKeQWeIjgLpOODteeF-1" target="zJrKeQWeIjgLpOODteeF-5">
          <mxGeometry width="50" height="50" relative="1" as="geometry">
            <mxPoint x="500" y="445" as="sourcePoint" />
            <mxPoint x="422" y="385" as="targetPoint" />
          </mxGeometry>
        </mxCell>
        <mxCell id="zJrKeQWeIjgLpOODteeF-9" value="" style="endArrow=none;html=1;rounded=0;entryX=1;entryY=1;entryDx=0;entryDy=0;" edge="1" parent="1" source="zJrKeQWeIjgLpOODteeF-4" target="zJrKeQWeIjgLpOODteeF-1">
          <mxGeometry width="50" height="50" relative="1" as="geometry">
            <mxPoint x="500" y="445" as="sourcePoint" />
            <mxPoint x="510" y="335" as="targetPoint" />
          </mxGeometry>
        </mxCell>
        <mxCell id="zJrKeQWeIjgLpOODteeF-10" value="" style="endArrow=none;html=1;rounded=0;entryX=0.399;entryY=1.003;entryDx=0;entryDy=0;entryPerimeter=0;" edge="1" parent="1" source="zJrKeQWeIjgLpOODteeF-1" target="zJrKeQWeIjgLpOODteeF-2">
          <mxGeometry width="50" height="50" relative="1" as="geometry">
            <mxPoint x="500" y="445" as="sourcePoint" />
            <mxPoint x="550" y="395" as="targetPoint" />
          </mxGeometry>
        </mxCell>
        <mxCell id="zJrKeQWeIjgLpOODteeF-11" value="" style="endArrow=none;html=1;rounded=0;entryX=0.053;entryY=0.675;entryDx=0;entryDy=0;entryPerimeter=0;" edge="1" parent="1" target="zJrKeQWeIjgLpOODteeF-3">
          <mxGeometry width="50" height="50" relative="1" as="geometry">
            <mxPoint x="524" y="295" as="sourcePoint" />
            <mxPoint x="580" y="305" as="targetPoint" />
          </mxGeometry>
        </mxCell>
        <mxCell id="zJrKeQWeIjgLpOODteeF-12" value="&lt;font style=&quot;font-size: 18px;&quot;&gt;Vernacular&lt;br&gt;Core&lt;/font&gt;" style="ellipse;whiteSpace=wrap;html=1;" vertex="1" parent="1">
          <mxGeometry x="1114" y="255" width="120" height="80" as="geometry" />
        </mxCell>
        <mxCell id="zJrKeQWeIjgLpOODteeF-13" value="&lt;font style=&quot;font-size: 18px;&quot;&gt;Species&lt;br&gt;Distribution&lt;/font&gt;" style="ellipse;whiteSpace=wrap;html=1;" vertex="1" parent="1">
          <mxGeometry x="1160" y="105" width="120" height="80" as="geometry" />
        </mxCell>
        <mxCell id="zJrKeQWeIjgLpOODteeF-14" value="&lt;span style=&quot;font-size: 18px;&quot;&gt;Taxon&lt;br&gt;Description&lt;/span&gt;" style="ellipse;whiteSpace=wrap;html=1;" vertex="1" parent="1">
          <mxGeometry x="1310" y="225" width="120" height="80" as="geometry" />
        </mxCell>
        <mxCell id="zJrKeQWeIjgLpOODteeF-15" value="&lt;span style=&quot;font-size: 18px;&quot;&gt;Literature&lt;br&gt;Referece&lt;/span&gt;" style="ellipse;whiteSpace=wrap;html=1;" vertex="1" parent="1">
          <mxGeometry x="1220" y="375" width="120" height="80" as="geometry" />
        </mxCell>
        <mxCell id="zJrKeQWeIjgLpOODteeF-16" value="&lt;span style=&quot;font-size: 18px;&quot;&gt;Ethnobotany&lt;/span&gt;" style="ellipse;whiteSpace=wrap;html=1;" vertex="1" parent="1">
          <mxGeometry x="980" y="355" width="120" height="80" as="geometry" />
        </mxCell>
        <mxCell id="zJrKeQWeIjgLpOODteeF-17" value="&lt;span style=&quot;font-size: 18px;&quot;&gt;Scientific&lt;br&gt;Names&lt;/span&gt;" style="ellipse;whiteSpace=wrap;html=1;" vertex="1" parent="1">
          <mxGeometry x="950" y="165" width="120" height="80" as="geometry" />
        </mxCell>
        <mxCell id="zJrKeQWeIjgLpOODteeF-18" value="" style="endArrow=none;html=1;rounded=0;exitX=0.939;exitY=0.772;exitDx=0;exitDy=0;exitPerimeter=0;entryX=0.092;entryY=0.2;entryDx=0;entryDy=0;entryPerimeter=0;" edge="1" parent="1" source="zJrKeQWeIjgLpOODteeF-17" target="zJrKeQWeIjgLpOODteeF-12">
          <mxGeometry width="50" height="50" relative="1" as="geometry">
            <mxPoint x="1210" y="445" as="sourcePoint" />
            <mxPoint x="1120" y="285" as="targetPoint" />
          </mxGeometry>
        </mxCell>
        <mxCell id="zJrKeQWeIjgLpOODteeF-19" value="" style="endArrow=none;html=1;rounded=0;exitX=0;exitY=1;exitDx=0;exitDy=0;" edge="1" parent="1" source="zJrKeQWeIjgLpOODteeF-12" target="zJrKeQWeIjgLpOODteeF-16">
          <mxGeometry width="50" height="50" relative="1" as="geometry">
            <mxPoint x="1210" y="445" as="sourcePoint" />
            <mxPoint x="1132" y="385" as="targetPoint" />
          </mxGeometry>
        </mxCell>
        <mxCell id="zJrKeQWeIjgLpOODteeF-20" value="" style="endArrow=none;html=1;rounded=0;entryX=1;entryY=1;entryDx=0;entryDy=0;" edge="1" parent="1" source="zJrKeQWeIjgLpOODteeF-15" target="zJrKeQWeIjgLpOODteeF-12">
          <mxGeometry width="50" height="50" relative="1" as="geometry">
            <mxPoint x="1210" y="445" as="sourcePoint" />
            <mxPoint x="1220" y="335" as="targetPoint" />
          </mxGeometry>
        </mxCell>
        <mxCell id="zJrKeQWeIjgLpOODteeF-21" value="" style="endArrow=none;html=1;rounded=0;entryX=0.399;entryY=1.003;entryDx=0;entryDy=0;entryPerimeter=0;" edge="1" parent="1" source="zJrKeQWeIjgLpOODteeF-12" target="zJrKeQWeIjgLpOODteeF-13">
          <mxGeometry width="50" height="50" relative="1" as="geometry">
            <mxPoint x="1210" y="445" as="sourcePoint" />
            <mxPoint x="1260" y="395" as="targetPoint" />
          </mxGeometry>
        </mxCell>
        <mxCell id="zJrKeQWeIjgLpOODteeF-22" value="" style="endArrow=none;html=1;rounded=0;entryX=0.053;entryY=0.675;entryDx=0;entryDy=0;entryPerimeter=0;" edge="1" parent="1" target="zJrKeQWeIjgLpOODteeF-14">
          <mxGeometry width="50" height="50" relative="1" as="geometry">
            <mxPoint x="1234" y="295" as="sourcePoint" />
            <mxPoint x="1290" y="305" as="targetPoint" />
          </mxGeometry>
        </mxCell>
        <mxCell id="zJrKeQWeIjgLpOODteeF-24" value="" style="shape=singleArrow;whiteSpace=wrap;html=1;" vertex="1" parent="1">
          <mxGeometry x="770" y="225" width="140" height="115" as="geometry" />
        </mxCell>
      </root>
    </mxGraphModel>
  </diagram>
</mxfile>
